<svg width="66.000000" height="64.204102" viewBox="0 0 66 64.2041" fill="none" xmlns="http://www.w3.org/2000/svg" xmlns:xlink="http://www.w3.org/1999/xlink">
	<desc>
			Created with Pixso.
	</desc>
	<defs/>
	<path id="Rectangle 3" d="M13 0L43 0C48.52 0 53 4.47 53 10L53 40C53 45.52 48.52 50 43 50L21.67 50C20.66 50 19.74 50.6 19.33 51.54C18.45 53.59 15.54 53.59 14.66 51.54C14.25 50.6 13.33 50 12.32 50C7.17 50 3 45.82 3 40.67L3 10C3 4.47 7.47 0 13 0Z" fill="#312626" fill-opacity="1.000000" fill-rule="nonzero"/>
	<path id="VF" d="M20.25 37L29.45 16L26.46 16L18.83 33.25L11.27 16L8.04 16L17.27 37L20.25 37ZM35.13 25.93L35.13 18.6L46.94 18.6L46.94 16L32.12 16L32.12 37L35.13 37L35.13 28.51L45.65 28.51L45.65 25.93L35.13 25.93Z" fill="#FFFFFF" fill-opacity="1.000000" fill-rule="evenodd"/>
</svg>
